<mxfile host="app.diagrams.net" modified="2023-06-19T13:43:54.236Z" agent="Mozilla/5.0 (Windows NT 10.0; Win64; x64; rv:102.0) Gecko/20100101 Firefox/102.0" etag="IuilVZhKQ_ruz53qHdCG" version="21.5.0" type="github" pages="3">
  <diagram id="uX0c-UHxzICFUiosJeX8" name="full">
    <mxGraphModel dx="1049" dy="578" grid="1" gridSize="10" guides="1" tooltips="1" connect="1" arrows="1" fold="1" page="1" pageScale="1" pageWidth="850" pageHeight="1100" math="0" shadow="0">
      <root>
        <mxCell id="0" />
        <mxCell id="1" parent="0" />
        <mxCell id="sV2OfMHCmcn57ELJpI-B-1" style="edgeStyle=orthogonalEdgeStyle;rounded=0;orthogonalLoop=1;jettySize=auto;html=1;exitX=1;exitY=0.5;exitDx=0;exitDy=0;exitPerimeter=0;entryX=0;entryY=0.5;entryDx=0;entryDy=0;entryPerimeter=0;" parent="1" source="sV2OfMHCmcn57ELJpI-B-2" target="sV2OfMHCmcn57ELJpI-B-36" edge="1">
          <mxGeometry relative="1" as="geometry" />
        </mxCell>
        <mxCell id="sV2OfMHCmcn57ELJpI-B-2" value="" style="points=[[0.25,0,0],[0.5,0,0],[0.75,0,0],[1,0.25,0],[1,0.5,0],[1,0.75,0],[0.75,1,0],[0.5,1,0],[0.25,1,0],[0,0.75,0],[0,0.5,0],[0,0.25,0]];shape=mxgraph.bpmn.task;whiteSpace=wrap;rectStyle=rounded;size=10;html=1;container=0;expand=0;collapsible=0;taskMarker=abstract;" parent="1" vertex="1">
          <mxGeometry x="400" y="516.31" width="760" height="158.38" as="geometry" />
        </mxCell>
        <mxCell id="sV2OfMHCmcn57ELJpI-B-3" style="edgeStyle=orthogonalEdgeStyle;rounded=0;orthogonalLoop=1;jettySize=auto;html=1;exitX=1;exitY=0.5;exitDx=0;exitDy=0;exitPerimeter=0;entryX=0;entryY=0.75;entryDx=0;entryDy=0;entryPerimeter=0;" parent="1" source="sV2OfMHCmcn57ELJpI-B-4" edge="1">
          <mxGeometry relative="1" as="geometry">
            <mxPoint x="400" y="595.595" as="targetPoint" />
          </mxGeometry>
        </mxCell>
        <mxCell id="sV2OfMHCmcn57ELJpI-B-4" value="Evènement détecté" style="points=[[0.145,0.145,0],[0.5,0,0],[0.855,0.145,0],[1,0.5,0],[0.855,0.855,0],[0.5,1,0],[0.145,0.855,0],[0,0.5,0]];shape=mxgraph.bpmn.event;html=1;verticalLabelPosition=bottom;labelBackgroundColor=#ffffff;verticalAlign=top;align=center;perimeter=ellipsePerimeter;outlineConnect=0;aspect=fixed;outline=standard;symbol=general;" parent="1" vertex="1">
          <mxGeometry x="310" y="570.5" width="50" height="50" as="geometry" />
        </mxCell>
        <mxCell id="U2s3MVcaqmsw1VMYz-vy-2" style="edgeStyle=orthogonalEdgeStyle;rounded=0;orthogonalLoop=1;jettySize=auto;html=1;exitX=1;exitY=0.5;exitDx=0;exitDy=0;exitPerimeter=0;entryX=0;entryY=0.5;entryDx=0;entryDy=0;entryPerimeter=0;" parent="1" source="sV2OfMHCmcn57ELJpI-B-6" target="sV2OfMHCmcn57ELJpI-B-8" edge="1">
          <mxGeometry relative="1" as="geometry" />
        </mxCell>
        <mxCell id="sV2OfMHCmcn57ELJpI-B-6" value="Campagne de&lt;br&gt;prévention démarrée" style="points=[[0.145,0.145,0],[0.5,0,0],[0.855,0.145,0],[1,0.5,0],[0.855,0.855,0],[0.5,1,0],[0.145,0.855,0],[0,0.5,0]];shape=mxgraph.bpmn.event;html=1;verticalLabelPosition=bottom;labelBackgroundColor=#ffffff;verticalAlign=top;align=center;perimeter=ellipsePerimeter;outlineConnect=0;aspect=fixed;outline=standard;symbol=general;" parent="1" vertex="1">
          <mxGeometry x="310" y="385" width="50" height="50" as="geometry" />
        </mxCell>
        <mxCell id="sV2OfMHCmcn57ELJpI-B-7" style="edgeStyle=orthogonalEdgeStyle;rounded=0;orthogonalLoop=1;jettySize=auto;html=1;exitX=1;exitY=0.5;exitDx=0;exitDy=0;exitPerimeter=0;entryX=0;entryY=0.5;entryDx=0;entryDy=0;entryPerimeter=0;" parent="1" source="sV2OfMHCmcn57ELJpI-B-8" target="sV2OfMHCmcn57ELJpI-B-14" edge="1">
          <mxGeometry relative="1" as="geometry" />
        </mxCell>
        <mxCell id="U2s3MVcaqmsw1VMYz-vy-1" value="" style="edgeStyle=orthogonalEdgeStyle;rounded=0;orthogonalLoop=1;jettySize=auto;html=1;" parent="1" source="sV2OfMHCmcn57ELJpI-B-8" target="sV2OfMHCmcn57ELJpI-B-14" edge="1">
          <mxGeometry relative="1" as="geometry" />
        </mxCell>
        <mxCell id="sV2OfMHCmcn57ELJpI-B-8" value="" style="points=[[0.25,0,0],[0.5,0,0],[0.75,0,0],[1,0.25,0],[1,0.5,0],[1,0.75,0],[0.75,1,0],[0.5,1,0],[0.25,1,0],[0,0.75,0],[0,0.5,0],[0,0.25,0]];shape=mxgraph.bpmn.task;whiteSpace=wrap;rectStyle=rounded;size=10;html=1;container=0;expand=0;collapsible=0;taskMarker=abstract;" parent="1" vertex="1">
          <mxGeometry x="400" y="345" width="280" height="130" as="geometry" />
        </mxCell>
        <mxCell id="sV2OfMHCmcn57ELJpI-B-9" style="edgeStyle=orthogonalEdgeStyle;rounded=0;orthogonalLoop=1;jettySize=auto;html=1;exitX=1;exitY=0.5;exitDx=0;exitDy=0;exitPerimeter=0;entryX=0;entryY=0.5;entryDx=0;entryDy=0;entryPerimeter=0;" parent="1" source="sV2OfMHCmcn57ELJpI-B-10" target="sV2OfMHCmcn57ELJpI-B-12" edge="1">
          <mxGeometry relative="1" as="geometry" />
        </mxCell>
        <mxCell id="sV2OfMHCmcn57ELJpI-B-10" value="" style="points=[[0.145,0.145,0],[0.5,0,0],[0.855,0.145,0],[1,0.5,0],[0.855,0.855,0],[0.5,1,0],[0.145,0.855,0],[0,0.5,0]];shape=mxgraph.bpmn.event;html=1;verticalLabelPosition=bottom;labelBackgroundColor=#ffffff;verticalAlign=top;align=center;perimeter=ellipsePerimeter;outlineConnect=0;aspect=fixed;outline=standard;symbol=general;" parent="1" vertex="1">
          <mxGeometry x="425" y="385" width="50" height="50" as="geometry" />
        </mxCell>
        <mxCell id="sV2OfMHCmcn57ELJpI-B-11" style="edgeStyle=orthogonalEdgeStyle;rounded=0;orthogonalLoop=1;jettySize=auto;html=1;exitX=1;exitY=0.5;exitDx=0;exitDy=0;exitPerimeter=0;entryX=0;entryY=0.5;entryDx=0;entryDy=0;entryPerimeter=0;" parent="1" source="sV2OfMHCmcn57ELJpI-B-12" target="sV2OfMHCmcn57ELJpI-B-13" edge="1">
          <mxGeometry relative="1" as="geometry" />
        </mxCell>
        <mxCell id="sV2OfMHCmcn57ELJpI-B-12" value="Education, d&#39;entrainement et sensibilisation à la sécurité" style="points=[[0.25,0,0],[0.5,0,0],[0.75,0,0],[1,0.25,0],[1,0.5,0],[1,0.75,0],[0.75,1,0],[0.5,1,0],[0.25,1,0],[0,0.75,0],[0,0.5,0],[0,0.25,0]];shape=mxgraph.bpmn.task;whiteSpace=wrap;rectStyle=rounded;size=10;html=1;container=1;expand=0;collapsible=0;taskMarker=abstract;" parent="1" vertex="1">
          <mxGeometry x="495" y="370" width="90" height="80" as="geometry" />
        </mxCell>
        <mxCell id="sV2OfMHCmcn57ELJpI-B-13" value="" style="points=[[0.145,0.145,0],[0.5,0,0],[0.855,0.145,0],[1,0.5,0],[0.855,0.855,0],[0.5,1,0],[0.145,0.855,0],[0,0.5,0]];shape=mxgraph.bpmn.event;html=1;verticalLabelPosition=bottom;labelBackgroundColor=#ffffff;verticalAlign=top;align=center;perimeter=ellipsePerimeter;outlineConnect=0;aspect=fixed;outline=end;symbol=terminate2;" parent="1" vertex="1">
          <mxGeometry x="605" y="385" width="50" height="50" as="geometry" />
        </mxCell>
        <mxCell id="sV2OfMHCmcn57ELJpI-B-14" value="" style="points=[[0.145,0.145,0],[0.5,0,0],[0.855,0.145,0],[1,0.5,0],[0.855,0.855,0],[0.5,1,0],[0.145,0.855,0],[0,0.5,0]];shape=mxgraph.bpmn.event;html=1;verticalLabelPosition=bottom;labelBackgroundColor=#ffffff;verticalAlign=top;align=center;perimeter=ellipsePerimeter;outlineConnect=0;aspect=fixed;outline=end;symbol=terminate2;" parent="1" vertex="1">
          <mxGeometry x="720" y="385" width="50" height="50" as="geometry" />
        </mxCell>
        <mxCell id="sV2OfMHCmcn57ELJpI-B-15" value="Préparation" style="text;html=1;strokeColor=none;fillColor=none;align=center;verticalAlign=middle;whiteSpace=wrap;rounded=0;" parent="1" vertex="1">
          <mxGeometry x="510" y="340" width="60" height="30" as="geometry" />
        </mxCell>
        <mxCell id="sV2OfMHCmcn57ELJpI-B-16" style="edgeStyle=orthogonalEdgeStyle;rounded=0;orthogonalLoop=1;jettySize=auto;html=1;exitX=1;exitY=0.5;exitDx=0;exitDy=0;exitPerimeter=0;entryX=0;entryY=0.5;entryDx=0;entryDy=0;entryPerimeter=0;" parent="1" source="sV2OfMHCmcn57ELJpI-B-17" target="sV2OfMHCmcn57ELJpI-B-29" edge="1">
          <mxGeometry relative="1" as="geometry" />
        </mxCell>
        <mxCell id="sV2OfMHCmcn57ELJpI-B-17" value="Analyse de l&#39;incident potentiel" style="points=[[0.25,0,0],[0.5,0,0],[0.75,0,0],[1,0.25,0],[1,0.5,0],[1,0.75,0],[0.75,1,0],[0.5,1,0],[0.25,1,0],[0,0.75,0],[0,0.5,0],[0,0.25,0]];shape=mxgraph.bpmn.task;whiteSpace=wrap;rectStyle=rounded;size=10;html=1;container=1;expand=0;collapsible=0;taskMarker=abstract;" parent="1" vertex="1">
          <mxGeometry x="485" y="555" width="90" height="80" as="geometry" />
        </mxCell>
        <mxCell id="sV2OfMHCmcn57ELJpI-B-18" style="edgeStyle=orthogonalEdgeStyle;rounded=0;orthogonalLoop=1;jettySize=auto;html=1;exitX=1;exitY=0.5;exitDx=0;exitDy=0;exitPerimeter=0;entryX=0;entryY=0.5;entryDx=0;entryDy=0;entryPerimeter=0;" parent="1" source="sV2OfMHCmcn57ELJpI-B-19" target="sV2OfMHCmcn57ELJpI-B-20" edge="1">
          <mxGeometry relative="1" as="geometry" />
        </mxCell>
        <mxCell id="sV2OfMHCmcn57ELJpI-B-19" value="Documentation de l&#39;incident" style="points=[[0.25,0,0],[0.5,0,0],[0.75,0,0],[1,0.25,0],[1,0.5,0],[1,0.75,0],[0.75,1,0],[0.5,1,0],[0.25,1,0],[0,0.75,0],[0,0.5,0],[0,0.25,0]];shape=mxgraph.bpmn.task;whiteSpace=wrap;rectStyle=rounded;size=10;html=1;container=1;expand=0;collapsible=0;taskMarker=abstract;" parent="1" vertex="1">
          <mxGeometry x="694" y="555" width="90" height="80" as="geometry" />
        </mxCell>
        <mxCell id="sV2OfMHCmcn57ELJpI-B-20" value="Priorisation de l&#39;incident" style="points=[[0.25,0,0],[0.5,0,0],[0.75,0,0],[1,0.25,0],[1,0.5,0],[1,0.75,0],[0.75,1,0],[0.5,1,0],[0.25,1,0],[0,0.75,0],[0,0.5,0],[0,0.25,0]];shape=mxgraph.bpmn.task;whiteSpace=wrap;rectStyle=rounded;size=10;html=1;container=1;expand=0;collapsible=0;taskMarker=abstract;" parent="1" vertex="1">
          <mxGeometry x="807" y="555" width="90" height="80" as="geometry" />
        </mxCell>
        <mxCell id="sV2OfMHCmcn57ELJpI-B-21" style="edgeStyle=orthogonalEdgeStyle;rounded=0;orthogonalLoop=1;jettySize=auto;html=1;exitX=1;exitY=0.5;exitDx=0;exitDy=0;exitPerimeter=0;entryX=0;entryY=0.5;entryDx=0;entryDy=0;entryPerimeter=0;" parent="1" source="sV2OfMHCmcn57ELJpI-B-22" target="sV2OfMHCmcn57ELJpI-B-31" edge="1">
          <mxGeometry relative="1" as="geometry" />
        </mxCell>
        <mxCell id="sV2OfMHCmcn57ELJpI-B-22" value="Notification" style="points=[[0.25,0,0],[0.5,0,0],[0.75,0,0],[1,0.25,0],[1,0.5,0],[1,0.75,0],[0.75,1,0],[0.5,1,0],[0.25,1,0],[0,0.75,0],[0,0.5,0],[0,0.25,0]];shape=mxgraph.bpmn.task;whiteSpace=wrap;rectStyle=rounded;size=10;html=1;container=1;expand=0;collapsible=0;taskMarker=abstract;" parent="1" vertex="1">
          <mxGeometry x="919" y="554.5" width="90" height="80" as="geometry" />
        </mxCell>
        <mxCell id="sV2OfMHCmcn57ELJpI-B-23" style="edgeStyle=orthogonalEdgeStyle;rounded=0;orthogonalLoop=1;jettySize=auto;html=1;exitX=1;exitY=0.5;exitDx=0;exitDy=0;exitPerimeter=0;entryX=0;entryY=0.5;entryDx=0;entryDy=0;entryPerimeter=0;" parent="1" source="sV2OfMHCmcn57ELJpI-B-20" target="sV2OfMHCmcn57ELJpI-B-22" edge="1">
          <mxGeometry relative="1" as="geometry" />
        </mxCell>
        <mxCell id="sV2OfMHCmcn57ELJpI-B-24" style="edgeStyle=orthogonalEdgeStyle;rounded=0;orthogonalLoop=1;jettySize=auto;html=1;exitX=1;exitY=0.5;exitDx=0;exitDy=0;exitPerimeter=0;entryX=0;entryY=0.5;entryDx=0;entryDy=0;entryPerimeter=0;" parent="1" source="sV2OfMHCmcn57ELJpI-B-25" target="sV2OfMHCmcn57ELJpI-B-17" edge="1">
          <mxGeometry relative="1" as="geometry" />
        </mxCell>
        <mxCell id="sV2OfMHCmcn57ELJpI-B-25" value="" style="points=[[0.145,0.145,0],[0.5,0,0],[0.855,0.145,0],[1,0.5,0],[0.855,0.855,0],[0.5,1,0],[0.145,0.855,0],[0,0.5,0]];shape=mxgraph.bpmn.event;html=1;verticalLabelPosition=bottom;labelBackgroundColor=#ffffff;verticalAlign=top;align=center;perimeter=ellipsePerimeter;outlineConnect=0;aspect=fixed;outline=standard;symbol=general;" parent="1" vertex="1">
          <mxGeometry x="411" y="570" width="50" height="50" as="geometry" />
        </mxCell>
        <mxCell id="sV2OfMHCmcn57ELJpI-B-26" value="" style="points=[[0.145,0.145,0],[0.5,0,0],[0.855,0.145,0],[1,0.5,0],[0.855,0.855,0],[0.5,1,0],[0.145,0.855,0],[0,0.5,0]];shape=mxgraph.bpmn.event;html=1;verticalLabelPosition=bottom;labelBackgroundColor=#ffffff;verticalAlign=top;align=center;perimeter=ellipsePerimeter;outlineConnect=0;aspect=fixed;outline=end;symbol=terminate2;" parent="1" vertex="1">
          <mxGeometry x="1099" y="570" width="50" height="50" as="geometry" />
        </mxCell>
        <mxCell id="sV2OfMHCmcn57ELJpI-B-27" style="edgeStyle=orthogonalEdgeStyle;rounded=0;orthogonalLoop=1;jettySize=auto;html=1;exitX=1;exitY=0.5;exitDx=0;exitDy=0;exitPerimeter=0;entryX=0;entryY=0.5;entryDx=0;entryDy=0;entryPerimeter=0;" parent="1" source="sV2OfMHCmcn57ELJpI-B-29" target="sV2OfMHCmcn57ELJpI-B-19" edge="1">
          <mxGeometry relative="1" as="geometry" />
        </mxCell>
        <mxCell id="sV2OfMHCmcn57ELJpI-B-28" style="edgeStyle=orthogonalEdgeStyle;rounded=0;orthogonalLoop=1;jettySize=auto;html=1;exitX=0.5;exitY=1;exitDx=0;exitDy=0;exitPerimeter=0;entryX=0.5;entryY=1;entryDx=0;entryDy=0;entryPerimeter=0;" parent="1" source="sV2OfMHCmcn57ELJpI-B-29" target="sV2OfMHCmcn57ELJpI-B-31" edge="1">
          <mxGeometry relative="1" as="geometry">
            <Array as="points">
              <mxPoint x="624" y="647.5" />
              <mxPoint x="1054" y="647.5" />
            </Array>
          </mxGeometry>
        </mxCell>
        <mxCell id="sV2OfMHCmcn57ELJpI-B-29" value="" style="points=[[0.25,0.25,0],[0.5,0,0],[0.75,0.25,0],[1,0.5,0],[0.75,0.75,0],[0.5,1,0],[0.25,0.75,0],[0,0.5,0]];shape=mxgraph.bpmn.gateway2;html=1;verticalLabelPosition=bottom;labelBackgroundColor=#ffffff;verticalAlign=top;align=center;perimeter=rhombusPerimeter;outlineConnect=0;outline=none;symbol=none;gwType=exclusive;" parent="1" vertex="1">
          <mxGeometry x="599" y="570" width="50" height="50" as="geometry" />
        </mxCell>
        <mxCell id="sV2OfMHCmcn57ELJpI-B-30" style="edgeStyle=orthogonalEdgeStyle;rounded=0;orthogonalLoop=1;jettySize=auto;html=1;exitX=1;exitY=0.5;exitDx=0;exitDy=0;exitPerimeter=0;" parent="1" source="sV2OfMHCmcn57ELJpI-B-31" target="sV2OfMHCmcn57ELJpI-B-26" edge="1">
          <mxGeometry relative="1" as="geometry" />
        </mxCell>
        <mxCell id="sV2OfMHCmcn57ELJpI-B-31" value="" style="points=[[0.25,0.25,0],[0.5,0,0],[0.75,0.25,0],[1,0.5,0],[0.75,0.75,0],[0.5,1,0],[0.25,0.75,0],[0,0.5,0]];shape=mxgraph.bpmn.gateway2;html=1;verticalLabelPosition=bottom;labelBackgroundColor=#ffffff;verticalAlign=top;align=center;perimeter=rhombusPerimeter;outlineConnect=0;outline=none;symbol=none;gwType=exclusive;" parent="1" vertex="1">
          <mxGeometry x="1029" y="570" width="50" height="50" as="geometry" />
        </mxCell>
        <mxCell id="sV2OfMHCmcn57ELJpI-B-32" value="Incident avéré" style="text;html=1;strokeColor=none;fillColor=none;align=center;verticalAlign=middle;whiteSpace=wrap;rounded=0;" parent="1" vertex="1">
          <mxGeometry x="635" y="598.5" width="60" height="30" as="geometry" />
        </mxCell>
        <mxCell id="sV2OfMHCmcn57ELJpI-B-33" value="Faux positif" style="text;html=1;strokeColor=none;fillColor=none;align=center;verticalAlign=middle;whiteSpace=wrap;rounded=0;" parent="1" vertex="1">
          <mxGeometry x="574" y="618" width="60" height="30" as="geometry" />
        </mxCell>
        <mxCell id="sV2OfMHCmcn57ELJpI-B-34" style="edgeStyle=orthogonalEdgeStyle;rounded=0;orthogonalLoop=1;jettySize=auto;html=1;exitX=0.5;exitY=1;exitDx=0;exitDy=0;exitPerimeter=0;entryX=0.5;entryY=1;entryDx=0;entryDy=0;entryPerimeter=0;" parent="1" source="sV2OfMHCmcn57ELJpI-B-36" target="sV2OfMHCmcn57ELJpI-B-46" edge="1">
          <mxGeometry relative="1" as="geometry">
            <Array as="points">
              <mxPoint x="1205" y="660" />
              <mxPoint x="1416" y="660" />
            </Array>
          </mxGeometry>
        </mxCell>
        <mxCell id="sV2OfMHCmcn57ELJpI-B-35" style="edgeStyle=orthogonalEdgeStyle;rounded=0;orthogonalLoop=1;jettySize=auto;html=1;exitX=1;exitY=0.5;exitDx=0;exitDy=0;exitPerimeter=0;entryX=0;entryY=0.5;entryDx=0;entryDy=0;entryPerimeter=0;" parent="1" source="sV2OfMHCmcn57ELJpI-B-36" edge="1">
          <mxGeometry relative="1" as="geometry">
            <mxPoint x="1280" y="595.5" as="targetPoint" />
          </mxGeometry>
        </mxCell>
        <mxCell id="sV2OfMHCmcn57ELJpI-B-36" value="" style="points=[[0.25,0.25,0],[0.5,0,0],[0.75,0.25,0],[1,0.5,0],[0.75,0.75,0],[0.5,1,0],[0.25,0.75,0],[0,0.5,0]];shape=mxgraph.bpmn.gateway2;html=1;verticalLabelPosition=bottom;labelBackgroundColor=#ffffff;verticalAlign=top;align=center;perimeter=rhombusPerimeter;outlineConnect=0;outline=none;symbol=none;gwType=exclusive;" parent="1" vertex="1">
          <mxGeometry x="1180" y="570.5" width="50" height="50" as="geometry" />
        </mxCell>
        <mxCell id="sV2OfMHCmcn57ELJpI-B-37" value="Détection et analyse" style="text;html=1;strokeColor=none;fillColor=none;align=center;verticalAlign=middle;whiteSpace=wrap;rounded=0;" parent="1" vertex="1">
          <mxGeometry x="720" y="516" width="120" height="29.15" as="geometry" />
        </mxCell>
        <mxCell id="sV2OfMHCmcn57ELJpI-B-38" value="Faux positif" style="text;html=1;strokeColor=none;fillColor=none;align=center;verticalAlign=middle;whiteSpace=wrap;rounded=0;" parent="1" vertex="1">
          <mxGeometry x="1155" y="627.5" width="60" height="30" as="geometry" />
        </mxCell>
        <mxCell id="sV2OfMHCmcn57ELJpI-B-39" value="Incident avéré" style="text;html=1;strokeColor=none;fillColor=none;align=center;verticalAlign=middle;whiteSpace=wrap;rounded=0;" parent="1" vertex="1">
          <mxGeometry x="1220" y="599.5" width="60" height="30" as="geometry" />
        </mxCell>
        <mxCell id="sV2OfMHCmcn57ELJpI-B-40" style="edgeStyle=orthogonalEdgeStyle;rounded=0;orthogonalLoop=1;jettySize=auto;html=1;exitX=1;exitY=0.5;exitDx=0;exitDy=0;exitPerimeter=0;entryX=0;entryY=0.5;entryDx=0;entryDy=0;entryPerimeter=0;" parent="1" source="sV2OfMHCmcn57ELJpI-B-41" target="sV2OfMHCmcn57ELJpI-B-46" edge="1">
          <mxGeometry relative="1" as="geometry" />
        </mxCell>
        <mxCell id="sV2OfMHCmcn57ELJpI-B-41" value="Traitement de l&#39;incident" style="points=[[0.25,0,0],[0.5,0,0],[0.75,0,0],[1,0.25,0],[1,0.5,0],[1,0.75,0],[0.75,1,0],[0.5,1,0],[0.25,1,0],[0,0.75,0],[0,0.5,0],[0,0.25,0]];shape=mxgraph.bpmn.task;whiteSpace=wrap;rectStyle=rounded;size=10;html=1;container=1;expand=0;collapsible=0;taskMarker=abstract;isLoopStandard=1;" parent="1" vertex="1">
          <mxGeometry x="1280" y="555" width="80" height="80" as="geometry" />
        </mxCell>
        <mxCell id="sV2OfMHCmcn57ELJpI-B-42" style="edgeStyle=orthogonalEdgeStyle;rounded=0;orthogonalLoop=1;jettySize=auto;html=1;exitX=1;exitY=0.5;exitDx=0;exitDy=0;exitPerimeter=0;entryX=0;entryY=0.5;entryDx=0;entryDy=0;entryPerimeter=0;" parent="1" source="sV2OfMHCmcn57ELJpI-B-43" target="sV2OfMHCmcn57ELJpI-B-65" edge="1">
          <mxGeometry relative="1" as="geometry">
            <mxPoint x="1540" y="595.5" as="sourcePoint" />
            <mxPoint x="1595" y="595.5" as="targetPoint" />
          </mxGeometry>
        </mxCell>
        <mxCell id="sV2OfMHCmcn57ELJpI-B-43" value="Activités post-incident" style="points=[[0.25,0,0],[0.5,0,0],[0.75,0,0],[1,0.25,0],[1,0.5,0],[1,0.75,0],[0.75,1,0],[0.5,1,0],[0.25,1,0],[0,0.75,0],[0,0.5,0],[0,0.25,0]];shape=mxgraph.bpmn.task;whiteSpace=wrap;rectStyle=rounded;size=10;html=1;container=1;expand=0;collapsible=0;taskMarker=abstract;" parent="1" vertex="1">
          <mxGeometry x="1470" y="555.5" width="90" height="80" as="geometry" />
        </mxCell>
        <mxCell id="sV2OfMHCmcn57ELJpI-B-45" style="edgeStyle=orthogonalEdgeStyle;rounded=0;orthogonalLoop=1;jettySize=auto;html=1;exitX=1;exitY=0.5;exitDx=0;exitDy=0;exitPerimeter=0;entryX=0;entryY=0.5;entryDx=0;entryDy=0;entryPerimeter=0;" parent="1" source="sV2OfMHCmcn57ELJpI-B-46" target="sV2OfMHCmcn57ELJpI-B-43" edge="1">
          <mxGeometry relative="1" as="geometry" />
        </mxCell>
        <mxCell id="sV2OfMHCmcn57ELJpI-B-46" value="" style="points=[[0.25,0.25,0],[0.5,0,0],[0.75,0.25,0],[1,0.5,0],[0.75,0.75,0],[0.5,1,0],[0.25,0.75,0],[0,0.5,0]];shape=mxgraph.bpmn.gateway2;html=1;verticalLabelPosition=bottom;labelBackgroundColor=#ffffff;verticalAlign=top;align=center;perimeter=rhombusPerimeter;outlineConnect=0;outline=none;symbol=none;gwType=exclusive;" parent="1" vertex="1">
          <mxGeometry x="1391.25" y="570" width="50" height="50" as="geometry" />
        </mxCell>
        <mxCell id="sV2OfMHCmcn57ELJpI-B-64" value="" style="shape=datastore;html=1;labelPosition=center;verticalLabelPosition=bottom;align=center;verticalAlign=top;" parent="1" vertex="1">
          <mxGeometry x="1352.5" y="430" width="50" height="60" as="geometry" />
        </mxCell>
        <mxCell id="sV2OfMHCmcn57ELJpI-B-65" value="" style="points=[[0.145,0.145,0],[0.5,0,0],[0.855,0.145,0],[1,0.5,0],[0.855,0.855,0],[0.5,1,0],[0.145,0.855,0],[0,0.5,0]];shape=mxgraph.bpmn.event;html=1;verticalLabelPosition=bottom;labelBackgroundColor=#ffffff;verticalAlign=top;align=center;perimeter=ellipsePerimeter;outlineConnect=0;aspect=fixed;outline=end;symbol=terminate2;" parent="1" vertex="1">
          <mxGeometry x="1600" y="570.5" width="50" height="50" as="geometry" />
        </mxCell>
        <mxCell id="sV2OfMHCmcn57ELJpI-B-66" value="" style="edgeStyle=elbowEdgeStyle;fontSize=12;html=1;endFill=0;startFill=0;endSize=6;startSize=6;dashed=1;dashPattern=1 4;endArrow=openThin;startArrow=none;rounded=0;entryX=1;entryY=0.7;entryDx=0;entryDy=0;exitX=0.75;exitY=0;exitDx=0;exitDy=0;exitPerimeter=0;" parent="1" source="sV2OfMHCmcn57ELJpI-B-43" target="sV2OfMHCmcn57ELJpI-B-64" edge="1">
          <mxGeometry width="160" relative="1" as="geometry">
            <mxPoint x="1130" y="480" as="sourcePoint" />
            <mxPoint x="1290" y="480" as="targetPoint" />
            <Array as="points">
              <mxPoint x="1528" y="500" />
            </Array>
          </mxGeometry>
        </mxCell>
        <mxCell id="sV2OfMHCmcn57ELJpI-B-69" value="" style="edgeStyle=elbowEdgeStyle;fontSize=12;html=1;endFill=0;startFill=0;endSize=6;startSize=6;dashed=1;dashPattern=1 4;endArrow=openThin;startArrow=none;rounded=0;exitX=0;exitY=0.5;exitDx=0;exitDy=0;entryX=1;entryY=0.75;entryDx=0;entryDy=0;entryPerimeter=0;" parent="1" source="sV2OfMHCmcn57ELJpI-B-64" target="sV2OfMHCmcn57ELJpI-B-8" edge="1">
          <mxGeometry width="160" relative="1" as="geometry">
            <mxPoint x="830" y="480" as="sourcePoint" />
            <mxPoint x="990" y="480" as="targetPoint" />
            <Array as="points">
              <mxPoint x="780" y="459" />
              <mxPoint x="540" y="460" />
            </Array>
          </mxGeometry>
        </mxCell>
        <mxCell id="sV2OfMHCmcn57ELJpI-B-70" value="" style="edgeStyle=elbowEdgeStyle;fontSize=12;html=1;endFill=0;startFill=0;endSize=6;startSize=6;dashed=1;dashPattern=1 4;endArrow=openThin;startArrow=none;rounded=0;exitX=0;exitY=0.7;exitDx=0;exitDy=0;entryX=0.5;entryY=0;entryDx=0;entryDy=0;entryPerimeter=0;" parent="1" source="sV2OfMHCmcn57ELJpI-B-64" target="sV2OfMHCmcn57ELJpI-B-2" edge="1">
          <mxGeometry width="160" relative="1" as="geometry">
            <mxPoint x="830" y="480" as="sourcePoint" />
            <mxPoint x="990" y="480" as="targetPoint" />
            <Array as="points">
              <mxPoint x="780" y="480" />
            </Array>
          </mxGeometry>
        </mxCell>
        <mxCell id="sV2OfMHCmcn57ELJpI-B-71" value="" style="edgeStyle=elbowEdgeStyle;fontSize=12;html=1;endFill=0;startFill=0;endSize=6;startSize=6;dashed=1;dashPattern=1 4;endArrow=openThin;startArrow=none;rounded=0;exitX=0.15;exitY=0.95;exitDx=0;exitDy=0;exitPerimeter=0;entryX=0.25;entryY=0;entryDx=0;entryDy=0;entryPerimeter=0;" parent="1" source="sV2OfMHCmcn57ELJpI-B-64" target="sV2OfMHCmcn57ELJpI-B-41" edge="1">
          <mxGeometry width="160" relative="1" as="geometry">
            <mxPoint x="900" y="300" as="sourcePoint" />
            <mxPoint x="1060" y="300" as="targetPoint" />
            <Array as="points">
              <mxPoint x="1300" y="500" />
              <mxPoint x="1303" y="520" />
            </Array>
          </mxGeometry>
        </mxCell>
        <mxCell id="sV2OfMHCmcn57ELJpI-B-77" value="Description des actions d&#39;amélioration à faire" style="text;html=1;strokeColor=none;fillColor=none;align=center;verticalAlign=middle;whiteSpace=wrap;rounded=0;" parent="1" vertex="1">
          <mxGeometry x="1306.25" y="397" width="142.5" height="30" as="geometry" />
        </mxCell>
        <mxCell id="Cq0mXHCnPKmDUkQ41efG-3" value="L&#39;évènement est-il un incident ?" style="text;html=1;strokeColor=none;fillColor=none;align=center;verticalAlign=middle;whiteSpace=wrap;rounded=0;" parent="1" vertex="1">
          <mxGeometry x="594" y="535" width="60" height="30" as="geometry" />
        </mxCell>
        <mxCell id="Cq0mXHCnPKmDUkQ41efG-4" value="L&#39;évènement est-il un incident ?" style="text;html=1;strokeColor=none;fillColor=none;align=center;verticalAlign=middle;whiteSpace=wrap;rounded=0;" parent="1" vertex="1">
          <mxGeometry x="1175" y="535" width="60" height="30" as="geometry" />
        </mxCell>
        <mxCell id="oCm_amAaaY52toiDZRuH-1" value="Jusqu&#39;à retour&lt;br&gt;à l&#39;état normal" style="strokeWidth=2;html=1;shape=mxgraph.flowchart.annotation_1;align=left;pointerEvents=1;" parent="1" vertex="1">
          <mxGeometry x="1340" y="520" width="20" height="30" as="geometry" />
        </mxCell>
      </root>
    </mxGraphModel>
  </diagram>
  <diagram id="y5ShD4ojE8TopWa2U32p" name="condense">
    <mxGraphModel dx="1049" dy="578" grid="1" gridSize="10" guides="1" tooltips="1" connect="1" arrows="1" fold="1" page="1" pageScale="1" pageWidth="850" pageHeight="1100" math="0" shadow="0">
      <root>
        <mxCell id="0" />
        <mxCell id="1" parent="0" />
        <mxCell id="IrcUJPDgaq9a83ZYMpno-1" style="edgeStyle=orthogonalEdgeStyle;rounded=0;orthogonalLoop=1;jettySize=auto;html=1;exitX=1;exitY=0.5;exitDx=0;exitDy=0;exitPerimeter=0;entryX=0;entryY=0.5;entryDx=0;entryDy=0;entryPerimeter=0;" edge="1" target="IrcUJPDgaq9a83ZYMpno-37" parent="1">
          <mxGeometry relative="1" as="geometry">
            <mxPoint x="870" y="465.5" as="sourcePoint" />
          </mxGeometry>
        </mxCell>
        <mxCell id="IrcUJPDgaq9a83ZYMpno-3" style="edgeStyle=orthogonalEdgeStyle;rounded=0;orthogonalLoop=1;jettySize=auto;html=1;exitX=1;exitY=0.5;exitDx=0;exitDy=0;exitPerimeter=0;entryX=0;entryY=0.75;entryDx=0;entryDy=0;entryPerimeter=0;" edge="1" source="IrcUJPDgaq9a83ZYMpno-4" parent="1">
          <mxGeometry relative="1" as="geometry">
            <mxPoint x="780" y="465.595" as="targetPoint" />
          </mxGeometry>
        </mxCell>
        <mxCell id="IrcUJPDgaq9a83ZYMpno-4" value="Evènement détecté" style="points=[[0.145,0.145,0],[0.5,0,0],[0.855,0.145,0],[1,0.5,0],[0.855,0.855,0],[0.5,1,0],[0.145,0.855,0],[0,0.5,0]];shape=mxgraph.bpmn.event;html=1;verticalLabelPosition=bottom;labelBackgroundColor=#ffffff;verticalAlign=top;align=center;perimeter=ellipsePerimeter;outlineConnect=0;aspect=fixed;outline=standard;symbol=general;" vertex="1" parent="1">
          <mxGeometry x="690" y="440.5" width="50" height="50" as="geometry" />
        </mxCell>
        <mxCell id="IrcUJPDgaq9a83ZYMpno-5" style="edgeStyle=orthogonalEdgeStyle;rounded=0;orthogonalLoop=1;jettySize=auto;html=1;exitX=1;exitY=0.5;exitDx=0;exitDy=0;exitPerimeter=0;entryX=0;entryY=0.5;entryDx=0;entryDy=0;entryPerimeter=0;" edge="1" source="IrcUJPDgaq9a83ZYMpno-6" parent="1">
          <mxGeometry relative="1" as="geometry">
            <mxPoint x="780" y="295" as="targetPoint" />
          </mxGeometry>
        </mxCell>
        <mxCell id="IrcUJPDgaq9a83ZYMpno-6" value="Campagne de&lt;br&gt;prévention démarrée" style="points=[[0.145,0.145,0],[0.5,0,0],[0.855,0.145,0],[1,0.5,0],[0.855,0.855,0],[0.5,1,0],[0.145,0.855,0],[0,0.5,0]];shape=mxgraph.bpmn.event;html=1;verticalLabelPosition=bottom;labelBackgroundColor=#ffffff;verticalAlign=top;align=center;perimeter=ellipsePerimeter;outlineConnect=0;aspect=fixed;outline=standard;symbol=general;" vertex="1" parent="1">
          <mxGeometry x="690" y="270" width="50" height="50" as="geometry" />
        </mxCell>
        <mxCell id="IrcUJPDgaq9a83ZYMpno-15" value="" style="points=[[0.145,0.145,0],[0.5,0,0],[0.855,0.145,0],[1,0.5,0],[0.855,0.855,0],[0.5,1,0],[0.145,0.855,0],[0,0.5,0]];shape=mxgraph.bpmn.event;html=1;verticalLabelPosition=bottom;labelBackgroundColor=#ffffff;verticalAlign=top;align=center;perimeter=ellipsePerimeter;outlineConnect=0;aspect=fixed;outline=end;symbol=terminate2;" vertex="1" parent="1">
          <mxGeometry x="900" y="270" width="50" height="50" as="geometry" />
        </mxCell>
        <mxCell id="IrcUJPDgaq9a83ZYMpno-35" style="edgeStyle=orthogonalEdgeStyle;rounded=0;orthogonalLoop=1;jettySize=auto;html=1;exitX=0.5;exitY=1;exitDx=0;exitDy=0;exitPerimeter=0;entryX=0.5;entryY=1;entryDx=0;entryDy=0;entryPerimeter=0;" edge="1" source="IrcUJPDgaq9a83ZYMpno-37" target="IrcUJPDgaq9a83ZYMpno-46" parent="1">
          <mxGeometry relative="1" as="geometry">
            <Array as="points">
              <mxPoint x="915" y="530" />
              <mxPoint x="1126" y="530" />
            </Array>
          </mxGeometry>
        </mxCell>
        <mxCell id="IrcUJPDgaq9a83ZYMpno-36" style="edgeStyle=orthogonalEdgeStyle;rounded=0;orthogonalLoop=1;jettySize=auto;html=1;exitX=1;exitY=0.5;exitDx=0;exitDy=0;exitPerimeter=0;entryX=0;entryY=0.5;entryDx=0;entryDy=0;entryPerimeter=0;" edge="1" source="IrcUJPDgaq9a83ZYMpno-37" parent="1">
          <mxGeometry relative="1" as="geometry">
            <mxPoint x="990" y="465.5" as="targetPoint" />
          </mxGeometry>
        </mxCell>
        <mxCell id="IrcUJPDgaq9a83ZYMpno-37" value="" style="points=[[0.25,0.25,0],[0.5,0,0],[0.75,0.25,0],[1,0.5,0],[0.75,0.75,0],[0.5,1,0],[0.25,0.75,0],[0,0.5,0]];shape=mxgraph.bpmn.gateway2;html=1;verticalLabelPosition=bottom;labelBackgroundColor=#ffffff;verticalAlign=top;align=center;perimeter=rhombusPerimeter;outlineConnect=0;outline=none;symbol=none;gwType=exclusive;" vertex="1" parent="1">
          <mxGeometry x="890" y="440.5" width="50" height="50" as="geometry" />
        </mxCell>
        <mxCell id="IrcUJPDgaq9a83ZYMpno-39" value="Faux positif" style="text;html=1;strokeColor=none;fillColor=none;align=center;verticalAlign=middle;whiteSpace=wrap;rounded=0;" vertex="1" parent="1">
          <mxGeometry x="865" y="497.5" width="60" height="30" as="geometry" />
        </mxCell>
        <mxCell id="IrcUJPDgaq9a83ZYMpno-40" value="Incident avéré" style="text;html=1;strokeColor=none;fillColor=none;align=center;verticalAlign=middle;whiteSpace=wrap;rounded=0;" vertex="1" parent="1">
          <mxGeometry x="930" y="469.5" width="60" height="30" as="geometry" />
        </mxCell>
        <mxCell id="IrcUJPDgaq9a83ZYMpno-41" style="edgeStyle=orthogonalEdgeStyle;rounded=0;orthogonalLoop=1;jettySize=auto;html=1;exitX=1;exitY=0.5;exitDx=0;exitDy=0;exitPerimeter=0;entryX=0;entryY=0.5;entryDx=0;entryDy=0;entryPerimeter=0;" edge="1" source="IrcUJPDgaq9a83ZYMpno-42" target="IrcUJPDgaq9a83ZYMpno-46" parent="1">
          <mxGeometry relative="1" as="geometry" />
        </mxCell>
        <mxCell id="IrcUJPDgaq9a83ZYMpno-42" value="Traitement de l&#39;incident" style="points=[[0.25,0,0],[0.5,0,0],[0.75,0,0],[1,0.25,0],[1,0.5,0],[1,0.75,0],[0.75,1,0],[0.5,1,0],[0.25,1,0],[0,0.75,0],[0,0.5,0],[0,0.25,0]];shape=mxgraph.bpmn.task;whiteSpace=wrap;rectStyle=rounded;size=10;html=1;container=1;expand=0;collapsible=0;taskMarker=abstract;isLoopStandard=1;" vertex="1" parent="1">
          <mxGeometry x="990" y="425" width="80" height="80" as="geometry" />
        </mxCell>
        <mxCell id="IrcUJPDgaq9a83ZYMpno-43" style="edgeStyle=orthogonalEdgeStyle;rounded=0;orthogonalLoop=1;jettySize=auto;html=1;exitX=1;exitY=0.5;exitDx=0;exitDy=0;exitPerimeter=0;entryX=0;entryY=0.5;entryDx=0;entryDy=0;entryPerimeter=0;" edge="1" source="IrcUJPDgaq9a83ZYMpno-44" target="IrcUJPDgaq9a83ZYMpno-48" parent="1">
          <mxGeometry relative="1" as="geometry">
            <mxPoint x="1250" y="465.5" as="sourcePoint" />
            <mxPoint x="1305" y="465.5" as="targetPoint" />
          </mxGeometry>
        </mxCell>
        <mxCell id="IrcUJPDgaq9a83ZYMpno-44" value="Activités post-incident" style="points=[[0.25,0,0],[0.5,0,0],[0.75,0,0],[1,0.25,0],[1,0.5,0],[1,0.75,0],[0.75,1,0],[0.5,1,0],[0.25,1,0],[0,0.75,0],[0,0.5,0],[0,0.25,0]];shape=mxgraph.bpmn.task;whiteSpace=wrap;rectStyle=rounded;size=10;html=1;container=1;expand=0;collapsible=0;taskMarker=abstract;" vertex="1" parent="1">
          <mxGeometry x="1180" y="425.5" width="90" height="80" as="geometry" />
        </mxCell>
        <mxCell id="IrcUJPDgaq9a83ZYMpno-45" style="edgeStyle=orthogonalEdgeStyle;rounded=0;orthogonalLoop=1;jettySize=auto;html=1;exitX=1;exitY=0.5;exitDx=0;exitDy=0;exitPerimeter=0;entryX=0;entryY=0.5;entryDx=0;entryDy=0;entryPerimeter=0;" edge="1" source="IrcUJPDgaq9a83ZYMpno-46" target="IrcUJPDgaq9a83ZYMpno-44" parent="1">
          <mxGeometry relative="1" as="geometry" />
        </mxCell>
        <mxCell id="IrcUJPDgaq9a83ZYMpno-46" value="" style="points=[[0.25,0.25,0],[0.5,0,0],[0.75,0.25,0],[1,0.5,0],[0.75,0.75,0],[0.5,1,0],[0.25,0.75,0],[0,0.5,0]];shape=mxgraph.bpmn.gateway2;html=1;verticalLabelPosition=bottom;labelBackgroundColor=#ffffff;verticalAlign=top;align=center;perimeter=rhombusPerimeter;outlineConnect=0;outline=none;symbol=none;gwType=exclusive;" vertex="1" parent="1">
          <mxGeometry x="1101.25" y="440" width="50" height="50" as="geometry" />
        </mxCell>
        <mxCell id="IrcUJPDgaq9a83ZYMpno-47" value="" style="shape=datastore;html=1;labelPosition=center;verticalLabelPosition=bottom;align=center;verticalAlign=top;" vertex="1" parent="1">
          <mxGeometry x="1140" y="320" width="50" height="60" as="geometry" />
        </mxCell>
        <mxCell id="IrcUJPDgaq9a83ZYMpno-48" value="" style="points=[[0.145,0.145,0],[0.5,0,0],[0.855,0.145,0],[1,0.5,0],[0.855,0.855,0],[0.5,1,0],[0.145,0.855,0],[0,0.5,0]];shape=mxgraph.bpmn.event;html=1;verticalLabelPosition=bottom;labelBackgroundColor=#ffffff;verticalAlign=top;align=center;perimeter=ellipsePerimeter;outlineConnect=0;aspect=fixed;outline=end;symbol=terminate2;" vertex="1" parent="1">
          <mxGeometry x="1310" y="440.5" width="50" height="50" as="geometry" />
        </mxCell>
        <mxCell id="IrcUJPDgaq9a83ZYMpno-49" value="" style="edgeStyle=elbowEdgeStyle;fontSize=12;html=1;endFill=0;startFill=0;endSize=6;startSize=6;dashed=1;dashPattern=1 4;endArrow=openThin;startArrow=none;rounded=0;entryX=1;entryY=0.7;entryDx=0;entryDy=0;exitX=0.75;exitY=0;exitDx=0;exitDy=0;exitPerimeter=0;" edge="1" source="IrcUJPDgaq9a83ZYMpno-44" target="IrcUJPDgaq9a83ZYMpno-47" parent="1">
          <mxGeometry width="160" relative="1" as="geometry">
            <mxPoint x="840" y="350" as="sourcePoint" />
            <mxPoint x="1000" y="350" as="targetPoint" />
            <Array as="points">
              <mxPoint x="1238" y="370" />
            </Array>
          </mxGeometry>
        </mxCell>
        <mxCell id="IrcUJPDgaq9a83ZYMpno-50" value="" style="edgeStyle=elbowEdgeStyle;fontSize=12;html=1;endFill=0;startFill=0;endSize=6;startSize=6;dashed=1;dashPattern=1 4;endArrow=openThin;startArrow=none;rounded=0;exitX=0;exitY=0.5;exitDx=0;exitDy=0;entryX=0.5;entryY=1;entryDx=0;entryDy=0;entryPerimeter=0;" edge="1" source="IrcUJPDgaq9a83ZYMpno-47" target="IrcUJPDgaq9a83ZYMpno-58" parent="1">
          <mxGeometry width="160" relative="1" as="geometry">
            <mxPoint x="540" y="350" as="sourcePoint" />
            <mxPoint x="860" y="313" as="targetPoint" />
            <Array as="points">
              <mxPoint x="825" y="350" />
              <mxPoint x="910" y="340" />
              <mxPoint x="250" y="330" />
            </Array>
          </mxGeometry>
        </mxCell>
        <mxCell id="IrcUJPDgaq9a83ZYMpno-51" value="" style="edgeStyle=elbowEdgeStyle;fontSize=12;html=1;endFill=0;startFill=0;endSize=6;startSize=6;dashed=1;dashPattern=1 4;endArrow=openThin;startArrow=none;rounded=0;exitX=0;exitY=0.7;exitDx=0;exitDy=0;entryX=0.5;entryY=0;entryDx=0;entryDy=0;entryPerimeter=0;" edge="1" source="IrcUJPDgaq9a83ZYMpno-47" target="IrcUJPDgaq9a83ZYMpno-57" parent="1">
          <mxGeometry width="160" relative="1" as="geometry">
            <mxPoint x="540" y="350" as="sourcePoint" />
            <mxPoint x="490" y="386.30999999999995" as="targetPoint" />
            <Array as="points">
              <mxPoint x="825" y="380" />
              <mxPoint x="810" y="380" />
              <mxPoint x="490" y="350" />
            </Array>
          </mxGeometry>
        </mxCell>
        <mxCell id="IrcUJPDgaq9a83ZYMpno-52" value="" style="edgeStyle=elbowEdgeStyle;fontSize=12;html=1;endFill=0;startFill=0;endSize=6;startSize=6;dashed=1;dashPattern=1 4;endArrow=openThin;startArrow=none;rounded=0;exitX=0.15;exitY=0.95;exitDx=0;exitDy=0;exitPerimeter=0;entryX=0.25;entryY=0;entryDx=0;entryDy=0;entryPerimeter=0;" edge="1" source="IrcUJPDgaq9a83ZYMpno-47" target="IrcUJPDgaq9a83ZYMpno-42" parent="1">
          <mxGeometry width="160" relative="1" as="geometry">
            <mxPoint x="610" y="170" as="sourcePoint" />
            <mxPoint x="770" y="170" as="targetPoint" />
            <Array as="points">
              <mxPoint x="1010" y="370" />
              <mxPoint x="1013" y="390" />
            </Array>
          </mxGeometry>
        </mxCell>
        <mxCell id="IrcUJPDgaq9a83ZYMpno-53" value="Description des actions d&#39;amélioration à faire" style="text;html=1;strokeColor=none;fillColor=none;align=center;verticalAlign=middle;whiteSpace=wrap;rounded=0;" vertex="1" parent="1">
          <mxGeometry x="1093.75" y="290" width="142.5" height="30" as="geometry" />
        </mxCell>
        <mxCell id="IrcUJPDgaq9a83ZYMpno-55" value="L&#39;évènement est-il un incident ?" style="text;html=1;strokeColor=none;fillColor=none;align=center;verticalAlign=middle;whiteSpace=wrap;rounded=0;" vertex="1" parent="1">
          <mxGeometry x="885" y="405" width="60" height="30" as="geometry" />
        </mxCell>
        <mxCell id="IrcUJPDgaq9a83ZYMpno-56" value="Jusqu&#39;à retour&lt;br&gt;à l&#39;état normal" style="strokeWidth=2;html=1;shape=mxgraph.flowchart.annotation_1;align=left;pointerEvents=1;" vertex="1" parent="1">
          <mxGeometry x="1050" y="390" width="20" height="30" as="geometry" />
        </mxCell>
        <mxCell id="IrcUJPDgaq9a83ZYMpno-57" value="&lt;div&gt;Détection&lt;/div&gt;" style="points=[[0.25,0,0],[0.5,0,0],[0.75,0,0],[1,0.25,0],[1,0.5,0],[1,0.75,0],[0.75,1,0],[0.5,1,0],[0.25,1,0],[0,0.75,0],[0,0.5,0],[0,0.25,0]];shape=mxgraph.bpmn.task;whiteSpace=wrap;rectStyle=rounded;size=10;html=1;container=1;expand=0;collapsible=0;taskMarker=abstract;isLoopSub=1;" vertex="1" parent="1">
          <mxGeometry x="780" y="425" width="90" height="80" as="geometry" />
        </mxCell>
        <mxCell id="IrcUJPDgaq9a83ZYMpno-59" style="edgeStyle=orthogonalEdgeStyle;rounded=0;orthogonalLoop=1;jettySize=auto;html=1;exitX=1;exitY=0.5;exitDx=0;exitDy=0;exitPerimeter=0;entryX=0;entryY=0.5;entryDx=0;entryDy=0;entryPerimeter=0;" edge="1" parent="1" source="IrcUJPDgaq9a83ZYMpno-58" target="IrcUJPDgaq9a83ZYMpno-15">
          <mxGeometry relative="1" as="geometry" />
        </mxCell>
        <mxCell id="IrcUJPDgaq9a83ZYMpno-58" value="Prévention" style="points=[[0.25,0,0],[0.5,0,0],[0.75,0,0],[1,0.25,0],[1,0.5,0],[1,0.75,0],[0.75,1,0],[0.5,1,0],[0.25,1,0],[0,0.75,0],[0,0.5,0],[0,0.25,0]];shape=mxgraph.bpmn.task;whiteSpace=wrap;rectStyle=rounded;size=10;html=1;container=1;expand=0;collapsible=0;taskMarker=abstract;isLoopSub=1;" vertex="1" parent="1">
          <mxGeometry x="780" y="255" width="90" height="80" as="geometry" />
        </mxCell>
      </root>
    </mxGraphModel>
  </diagram>
  <diagram id="PDxmyPRHtfu0Ee-HoYnr" name="detection">
    <mxGraphModel dx="1049" dy="578" grid="1" gridSize="10" guides="1" tooltips="1" connect="1" arrows="1" fold="1" page="1" pageScale="1" pageWidth="850" pageHeight="1100" math="0" shadow="0">
      <root>
        <mxCell id="0" />
        <mxCell id="1" parent="0" />
      </root>
    </mxGraphModel>
  </diagram>
</mxfile>
